<svg width="156" height="188" viewBox="0 0 156 188" fill="none" xmlns="http://www.w3.org/2000/svg">
<path d="M76.6094 82.625V94H74.2656L69.6953 86.375V94H67.3516V82.625H69.6953L74.2734 90.2578V82.625H76.6094ZM87.9922 88.0469V88.5859C87.9922 89.4505 87.875 90.2266 87.6406 90.9141C87.4062 91.6016 87.0755 92.1875 86.6484 92.6719C86.2214 93.151 85.7109 93.5182 85.1172 93.7734C84.5286 94.0286 83.875 94.1562 83.1562 94.1562C82.4427 94.1562 81.7891 94.0286 81.1953 93.7734C80.6068 93.5182 80.0964 93.151 79.6641 92.6719C79.2318 92.1875 78.8958 91.6016 78.6562 90.9141C78.4219 90.2266 78.3047 89.4505 78.3047 88.5859V88.0469C78.3047 87.1771 78.4219 86.401 78.6562 85.7188C78.8906 85.0312 79.2214 84.4453 79.6484 83.9609C80.0807 83.4766 80.5911 83.1068 81.1797 82.8516C81.7734 82.5964 82.4271 82.4688 83.1406 82.4688C83.8594 82.4688 84.513 82.5964 85.1016 82.8516C85.6953 83.1068 86.2057 83.4766 86.6328 83.9609C87.0651 84.4453 87.3984 85.0312 87.6328 85.7188C87.8724 86.401 87.9922 87.1771 87.9922 88.0469ZM85.625 88.5859V88.0312C85.625 87.4271 85.5703 86.8958 85.4609 86.4375C85.3516 85.9792 85.1901 85.5938 84.9766 85.2812C84.763 84.9688 84.5026 84.7344 84.1953 84.5781C83.888 84.4167 83.5365 84.3359 83.1406 84.3359C82.7448 84.3359 82.3932 84.4167 82.0859 84.5781C81.7839 84.7344 81.526 84.9688 81.3125 85.2812C81.1042 85.5938 80.9453 85.9792 80.8359 86.4375C80.7266 86.8958 80.6719 87.4271 80.6719 88.0312V88.5859C80.6719 89.1849 80.7266 89.7161 80.8359 90.1797C80.9453 90.638 81.1068 91.026 81.3203 91.3438C81.5339 91.6562 81.7943 91.8932 82.1016 92.0547C82.4089 92.2161 82.7604 92.2969 83.1562 92.2969C83.5521 92.2969 83.9036 92.2161 84.2109 92.0547C84.5182 91.8932 84.776 91.6562 84.9844 91.3438C85.1927 91.026 85.3516 90.638 85.4609 90.1797C85.5703 89.7161 85.625 89.1849 85.625 88.5859ZM56.3281 101.625V113H53.9922V101.625H56.3281ZM59.5938 101.625H61.5781L64.5 109.977L67.4219 101.625H69.4062L65.2969 113H63.7031L59.5938 101.625ZM58.5234 101.625H60.5L60.8594 109.766V113H58.5234V101.625ZM68.5 101.625H70.4844V113H68.1406V109.766L68.5 101.625ZM77.3047 103.57L74.2109 113H71.7188L75.9453 101.625H77.5312L77.3047 103.57ZM79.875 113L76.7734 103.57L76.5234 101.625H78.125L82.375 113H79.875ZM79.7344 108.766V110.602H73.7266V108.766H79.7344ZM92.3047 107.055V111.562C92.1276 111.776 91.8542 112.008 91.4844 112.258C91.1146 112.503 90.638 112.714 90.0547 112.891C89.4714 113.068 88.7656 113.156 87.9375 113.156C87.2031 113.156 86.5339 113.036 85.9297 112.797C85.3255 112.552 84.8047 112.195 84.3672 111.727C83.9349 111.258 83.6016 110.685 83.3672 110.008C83.1328 109.326 83.0156 108.547 83.0156 107.672V106.961C83.0156 106.086 83.1276 105.307 83.3516 104.625C83.5807 103.943 83.9062 103.367 84.3281 102.898C84.75 102.43 85.2526 102.073 85.8359 101.828C86.4193 101.583 87.0677 101.461 87.7812 101.461C88.7708 101.461 89.5833 101.622 90.2188 101.945C90.8542 102.263 91.3385 102.706 91.6719 103.273C92.0104 103.836 92.2188 104.482 92.2969 105.211H90.0234C89.9661 104.826 89.8568 104.49 89.6953 104.203C89.5339 103.917 89.3021 103.693 89 103.531C88.7031 103.37 88.3177 103.289 87.8438 103.289C87.4531 103.289 87.1042 103.37 86.7969 103.531C86.4948 103.688 86.2396 103.919 86.0312 104.227C85.8229 104.534 85.6641 104.914 85.5547 105.367C85.4453 105.82 85.3906 106.346 85.3906 106.945V107.672C85.3906 108.266 85.4479 108.792 85.5625 109.25C85.6771 109.703 85.8464 110.086 86.0703 110.398C86.2995 110.706 86.5807 110.938 86.9141 111.094C87.2474 111.25 87.6354 111.328 88.0781 111.328C88.4479 111.328 88.7552 111.297 89 111.234C89.25 111.172 89.4505 111.096 89.6016 111.008C89.7578 110.914 89.8776 110.826 89.9609 110.742V108.727H87.8203V107.055H92.3047ZM101.828 111.172V113H95.7734V111.172H101.828ZM96.5391 101.625V113H94.1953V101.625H96.5391ZM101.039 106.258V108.039H95.7734V106.258H101.039ZM101.82 101.625V103.461H95.7734V101.625H101.82Z" fill="#4F3BFF"/>
</svg>
